<svg width="382" height="100" viewBox="0 0 382 100" fill="none" xmlns="http://www.w3.org/2000/svg">
<path fill-rule="evenodd" clip-rule="evenodd" d="M36.0081 33.5622L53.0502 50.9199L34.5294 69.7835L34.5313 69.7855L34.3636 69.9564L44.4133 80.1923L36.8045 87.942L18.5101 70.3308L38.1252 50.3526L36.0588 48.2477L16.3854 68.2855L8.1614 60.3687L36.0081 33.5622ZM46.4799 78.0874L54 70.428V54.1642L38.4957 69.9556L46.4799 78.0874ZM4.09055 60.3666L32.519 33L15.8163 33L0 49.1091L1.0821e-06 71.8908L15.8163 88L32.7915 87.9998L4.10068 60.3807L4.10293 60.3786L4.09055 60.3666Z" fill="white"/>
<path d="M78.0918 63.0996L74.9629 66.3516V75H71.5879V49.4062H74.9629V62.0625L86.3359 49.4062H90.4141L80.3418 60.709L91.2051 75H87.1621L78.0918 63.0996ZM101.084 75.3516C98.5059 75.3516 96.4082 74.5078 94.791 72.8203C93.1738 71.1211 92.3652 68.8535 92.3652 66.0176V65.4199C92.3652 63.5332 92.7227 61.8516 93.4375 60.375C94.1641 58.8867 95.1719 57.7266 96.4609 56.8945C97.7617 56.0508 99.168 55.6289 100.68 55.6289C103.152 55.6289 105.074 56.4434 106.445 58.0723C107.816 59.7012 108.502 62.0332 108.502 65.0684V66.4219H95.6172C95.6641 68.2969 96.209 69.8145 97.252 70.9746C98.3066 72.123 99.6426 72.6973 101.26 72.6973C102.408 72.6973 103.381 72.4629 104.178 71.9941C104.975 71.5254 105.672 70.9043 106.27 70.1309L108.256 71.6777C106.662 74.127 104.271 75.3516 101.084 75.3516ZM100.68 58.3008C99.3672 58.3008 98.2656 58.7812 97.375 59.7422C96.4844 60.6914 95.9336 62.0273 95.7227 63.75H105.25V63.5039C105.156 61.8516 104.711 60.5742 103.914 59.6719C103.117 58.7578 102.039 58.3008 100.68 58.3008ZM118.258 70.2363L122.688 55.9805H126.168L118.521 77.9355C117.338 81.0996 115.457 82.6816 112.879 82.6816L112.264 82.6289L111.051 82.4004V79.7637L111.93 79.834C113.031 79.834 113.887 79.6113 114.496 79.166C115.117 78.7207 115.627 77.9062 116.025 76.7227L116.746 74.7891L109.961 55.9805H113.512L118.258 70.2363ZM141.9 64.9805V75H138.525V49.4062H147.965C150.766 49.4062 152.957 50.1211 154.539 51.5508C156.133 52.9805 156.93 54.873 156.93 57.2285C156.93 59.7129 156.15 61.6289 154.592 62.9766C153.045 64.3125 150.824 64.9805 147.93 64.9805H141.9ZM141.9 62.2207H147.965C149.77 62.2207 151.152 61.7988 152.113 60.9551C153.074 60.0996 153.555 58.8691 153.555 57.2637C153.555 55.7402 153.074 54.5215 152.113 53.6074C151.152 52.6934 149.834 52.2188 148.158 52.1836H141.9V62.2207ZM168.373 75.3516C165.795 75.3516 163.697 74.5078 162.08 72.8203C160.463 71.1211 159.654 68.8535 159.654 66.0176V65.4199C159.654 63.5332 160.012 61.8516 160.727 60.375C161.453 58.8867 162.461 57.7266 163.75 56.8945C165.051 56.0508 166.457 55.6289 167.969 55.6289C170.441 55.6289 172.363 56.4434 173.734 58.0723C175.105 59.7012 175.791 62.0332 175.791 65.0684V66.4219H162.906C162.953 68.2969 163.498 69.8145 164.541 70.9746C165.596 72.123 166.932 72.6973 168.549 72.6973C169.697 72.6973 170.67 72.4629 171.467 71.9941C172.264 71.5254 172.961 70.9043 173.559 70.1309L175.545 71.6777C173.951 74.127 171.561 75.3516 168.373 75.3516ZM167.969 58.3008C166.656 58.3008 165.555 58.7812 164.664 59.7422C163.773 60.6914 163.223 62.0273 163.012 63.75H172.539V63.5039C172.445 61.8516 172 60.5742 171.203 59.6719C170.406 58.7578 169.328 58.3008 167.969 58.3008ZM178.709 65.3145C178.709 63.4512 179.072 61.7754 179.799 60.2871C180.537 58.7988 181.557 57.6504 182.857 56.8418C184.17 56.0332 185.664 55.6289 187.34 55.6289C189.93 55.6289 192.021 56.5254 193.615 58.3184C195.221 60.1113 196.023 62.4961 196.023 65.4727V65.7012C196.023 67.5527 195.666 69.2168 194.951 70.6934C194.248 72.1582 193.234 73.3008 191.91 74.1211C190.598 74.9414 189.086 75.3516 187.375 75.3516C184.797 75.3516 182.705 74.4551 181.1 72.6621C179.506 70.8691 178.709 68.4961 178.709 65.543V65.3145ZM181.979 65.7012C181.979 67.8105 182.465 69.5039 183.438 70.7812C184.422 72.0586 185.734 72.6973 187.375 72.6973C189.027 72.6973 190.34 72.0527 191.312 70.7637C192.285 69.4629 192.771 67.6465 192.771 65.3145C192.771 63.2285 192.273 61.541 191.277 60.252C190.293 58.9512 188.98 58.3008 187.34 58.3008C185.734 58.3008 184.439 58.9395 183.455 60.2168C182.471 61.4941 181.979 63.3223 181.979 65.7012ZM216.168 65.7012C216.168 68.5957 215.506 70.9277 214.182 72.6973C212.857 74.4668 211.064 75.3516 208.803 75.3516C206.494 75.3516 204.678 74.6191 203.354 73.1543V82.3125H200.102V55.9805H203.072L203.23 58.0898C204.555 56.4492 206.395 55.6289 208.75 55.6289C211.035 55.6289 212.84 56.4902 214.164 58.2129C215.5 59.9355 216.168 62.332 216.168 65.4023V65.7012ZM212.916 65.332C212.916 63.1875 212.459 61.4941 211.545 60.252C210.631 59.0098 209.377 58.3887 207.783 58.3887C205.814 58.3887 204.338 59.2617 203.354 61.0078V70.0957C204.326 71.8301 205.814 72.6973 207.818 72.6973C209.377 72.6973 210.613 72.082 211.527 70.8516C212.453 69.6094 212.916 67.7695 212.916 65.332ZM223.85 75H220.598V48H223.85V75ZM236.963 75.3516C234.385 75.3516 232.287 74.5078 230.67 72.8203C229.053 71.1211 228.244 68.8535 228.244 66.0176V65.4199C228.244 63.5332 228.602 61.8516 229.316 60.375C230.043 58.8867 231.051 57.7266 232.34 56.8945C233.641 56.0508 235.047 55.6289 236.559 55.6289C239.031 55.6289 240.953 56.4434 242.324 58.0723C243.695 59.7012 244.381 62.0332 244.381 65.0684V66.4219H231.496C231.543 68.2969 232.088 69.8145 233.131 70.9746C234.186 72.123 235.521 72.6973 237.139 72.6973C238.287 72.6973 239.26 72.4629 240.057 71.9941C240.854 71.5254 241.551 70.9043 242.148 70.1309L244.135 71.6777C242.541 74.127 240.15 75.3516 236.963 75.3516ZM236.559 58.3008C235.246 58.3008 234.145 58.7812 233.254 59.7422C232.363 60.6914 231.812 62.0273 231.602 63.75H241.129V63.5039C241.035 61.8516 240.59 60.5742 239.793 59.6719C238.996 58.7578 237.918 58.3008 236.559 58.3008ZM261.221 75H257.846V49.4062H261.221V75ZM269.975 55.9805L270.08 58.3711C271.533 56.543 273.432 55.6289 275.775 55.6289C279.795 55.6289 281.822 57.8965 281.857 62.4316V75H278.605V62.4141C278.594 61.043 278.277 60.0293 277.656 59.373C277.047 58.7168 276.092 58.3887 274.791 58.3887C273.736 58.3887 272.811 58.6699 272.014 59.2324C271.217 59.7949 270.596 60.5332 270.15 61.4473V75H266.898V55.9805H269.975ZM297.836 69.9551C297.836 69.0762 297.502 68.3965 296.834 67.916C296.178 67.4238 295.023 67.002 293.371 66.6504C291.73 66.2988 290.424 65.877 289.451 65.3848C288.49 64.8926 287.775 64.3066 287.307 63.627C286.85 62.9473 286.621 62.1387 286.621 61.2012C286.621 59.6426 287.277 58.3242 288.59 57.2461C289.914 56.168 291.602 55.6289 293.652 55.6289C295.809 55.6289 297.555 56.1855 298.891 57.2988C300.238 58.4121 300.912 59.8359 300.912 61.5703H297.643C297.643 60.6797 297.262 59.9121 296.5 59.2676C295.75 58.623 294.801 58.3008 293.652 58.3008C292.469 58.3008 291.543 58.5586 290.875 59.0742C290.207 59.5898 289.873 60.2637 289.873 61.0957C289.873 61.8809 290.184 62.4727 290.805 62.8711C291.426 63.2695 292.545 63.6504 294.162 64.0137C295.791 64.377 297.109 64.8105 298.117 65.3145C299.125 65.8184 299.869 66.4277 300.35 67.1426C300.842 67.8457 301.088 68.707 301.088 69.7266C301.088 71.4258 300.408 72.791 299.049 73.8223C297.689 74.8418 295.926 75.3516 293.758 75.3516C292.234 75.3516 290.887 75.082 289.715 74.543C288.543 74.0039 287.623 73.2539 286.955 72.293C286.299 71.3203 285.971 70.2715 285.971 69.1465H289.223C289.281 70.2363 289.715 71.1035 290.523 71.748C291.344 72.3809 292.422 72.6973 293.758 72.6973C294.988 72.6973 295.973 72.4512 296.711 71.959C297.461 71.4551 297.836 70.7871 297.836 69.9551ZM308.857 75H305.605V55.9805H308.857V75ZM305.342 50.9355C305.342 50.4082 305.5 49.9629 305.816 49.5996C306.145 49.2363 306.625 49.0547 307.258 49.0547C307.891 49.0547 308.371 49.2363 308.699 49.5996C309.027 49.9629 309.191 50.4082 309.191 50.9355C309.191 51.4629 309.027 51.9023 308.699 52.2539C308.371 52.6055 307.891 52.7812 307.258 52.7812C306.625 52.7812 306.145 52.6055 305.816 52.2539C305.5 51.9023 305.342 51.4629 305.342 50.9355ZM313.305 65.332C313.305 62.3672 313.99 60.0117 315.361 58.2656C316.732 56.5078 318.549 55.6289 320.811 55.6289C323.131 55.6289 324.941 56.4492 326.242 58.0898L326.4 55.9805H329.371V74.543C329.371 77.0039 328.639 78.9434 327.174 80.3613C325.721 81.7793 323.764 82.4883 321.303 82.4883C319.932 82.4883 318.59 82.1953 317.277 81.6094C315.965 81.0234 314.963 80.2207 314.271 79.2012L315.959 77.25C317.354 78.9727 319.059 79.834 321.074 79.834C322.656 79.834 323.887 79.3887 324.766 78.498C325.656 77.6074 326.102 76.3535 326.102 74.7363V73.1016C324.801 74.6016 323.025 75.3516 320.775 75.3516C318.549 75.3516 316.744 74.4551 315.361 72.6621C313.99 70.8691 313.305 68.4258 313.305 65.332ZM316.574 65.7012C316.574 67.8457 317.014 69.5332 317.893 70.7637C318.771 71.9824 320.002 72.5918 321.584 72.5918C323.635 72.5918 325.141 71.6602 326.102 69.7969V61.1133C325.105 59.2969 323.611 58.3887 321.619 58.3887C320.037 58.3887 318.801 59.0039 317.91 60.2344C317.02 61.4648 316.574 63.2871 316.574 65.7012ZM337.545 58.2832C338.986 56.5137 340.861 55.6289 343.17 55.6289C347.189 55.6289 349.217 57.8965 349.252 62.4316V75H346V62.4141C345.988 61.043 345.672 60.0293 345.051 59.373C344.441 58.7168 343.486 58.3887 342.186 58.3887C341.131 58.3887 340.205 58.6699 339.408 59.2324C338.611 59.7949 337.99 60.5332 337.545 61.4473V75H334.293V48H337.545V58.2832ZM358.533 51.375V55.9805H362.084V58.4941H358.533V70.2891C358.533 71.0508 358.691 71.625 359.008 72.0117C359.324 72.3867 359.863 72.5742 360.625 72.5742C361 72.5742 361.516 72.5039 362.172 72.3633V75C361.316 75.2344 360.484 75.3516 359.676 75.3516C358.223 75.3516 357.127 74.9121 356.389 74.0332C355.65 73.1543 355.281 71.9062 355.281 70.2891V58.4941H351.818V55.9805H355.281V51.375H358.533ZM376.973 69.9551C376.973 69.0762 376.639 68.3965 375.971 67.916C375.314 67.4238 374.16 67.002 372.508 66.6504C370.867 66.2988 369.561 65.877 368.588 65.3848C367.627 64.8926 366.912 64.3066 366.443 63.627C365.986 62.9473 365.758 62.1387 365.758 61.2012C365.758 59.6426 366.414 58.3242 367.727 57.2461C369.051 56.168 370.738 55.6289 372.789 55.6289C374.945 55.6289 376.691 56.1855 378.027 57.2988C379.375 58.4121 380.049 59.8359 380.049 61.5703H376.779C376.779 60.6797 376.398 59.9121 375.637 59.2676C374.887 58.623 373.938 58.3008 372.789 58.3008C371.605 58.3008 370.68 58.5586 370.012 59.0742C369.344 59.5898 369.01 60.2637 369.01 61.0957C369.01 61.8809 369.32 62.4727 369.941 62.8711C370.562 63.2695 371.682 63.6504 373.299 64.0137C374.928 64.377 376.246 64.8105 377.254 65.3145C378.262 65.8184 379.006 66.4277 379.486 67.1426C379.979 67.8457 380.225 68.707 380.225 69.7266C380.225 71.4258 379.545 72.791 378.186 73.8223C376.826 74.8418 375.062 75.3516 372.895 75.3516C371.371 75.3516 370.023 75.082 368.852 74.543C367.68 74.0039 366.76 73.2539 366.092 72.293C365.436 71.3203 365.107 70.2715 365.107 69.1465H368.359C368.418 70.2363 368.852 71.1035 369.66 71.748C370.48 72.3809 371.559 72.6973 372.895 72.6973C374.125 72.6973 375.109 72.4512 375.848 71.959C376.598 71.4551 376.973 70.7871 376.973 69.9551Z" fill="white"/>
</svg>
